<svg id="logos" width="90" height="30" class="isHovered">
	<path id="desktop-logo"
		d="M27.0763558,3.18187179 C27.0763558,4.98305128 25.5280865,6.39553846 23.5727981,6.39553846 C21.6574135,6.39553846 20.0373173,4.91230769 20.0373173,3.18107692 C20.0373173,1.37910256 21.6574135,-1.95399252e-14 23.5727981,-1.95399252e-14 C25.5280865,-1.95399252e-14 27.0763558,1.37910256 27.0763558,3.18107692 L27.0763558,3.18187179 Z M20.6622115,25.1227179 L26.5224904,25.1227179 L26.5224904,8.65615385 L20.6630096,8.65615385 L20.6630096,25.1235128 L20.6622115,25.1227179 Z M52.0681346,0.000794871795 L57.9292115,0.000794871795 L57.9292115,25.1235128 L52.4017308,25.1235128 L52.4017308,22.7532051 C51.4791538,24.5559744 49.4153269,25.4398718 47.3155865,25.4398718 C45.0650096,25.4398718 43.1121154,24.6624872 41.4537115,23.0735385 C39.7953077,21.4837949 38.94775,19.4346154 38.94775,16.8544615 C38.94775,14.2751026 39.7953077,12.2267179 41.4537115,10.6369744 C43.1121154,9.04723077 45.0658077,8.23407692 47.3155865,8.23407692 C49.2668846,8.23407692 50.8526635,8.86997436 52.0689327,10.1775385 L52.0689327,0.00317948718 L52.0681346,0.000794871795 Z M45.950875,19.3265128 C47.3874135,20.6332821 49.6355962,20.6332821 50.9995096,19.3265128 C52.4384423,17.9482051 52.4384423,15.7925128 50.9995096,14.4857436 C49.6363942,13.1090256 47.3874135,13.1090256 45.9516731,14.4857436 C44.5869615,15.7925128 44.5869615,17.9482051 45.9516731,19.3265128 L45.950875,19.3265128 Z M79.296125,18.9378205 C81.2474231,18.9378205 82.8316058,20.3161282 82.8316058,22.1546667 C82.8316058,24.0257949 81.2474231,25.4406667 79.296125,25.4406667 C77.3783462,25.4406667 75.8300769,24.0257949 75.8300769,22.1538718 C75.8300769,20.3153333 77.3783462,18.9370256 79.296125,18.9370256 L79.296125,18.9378205 Z M16.9735,14.204359 C16.1251442,13.0390769 14.908875,12.3666154 13.3238942,12.1202051 C14.576875,11.7680769 15.4994519,11.0948205 16.0517212,10.1425641 C16.6047885,9.18871795 16.8992788,8.23487179 16.8992788,7.316 C16.8992788,5.37333333 16.1993654,3.782 14.7604327,2.58174359 C13.3622019,1.38148718 11.4819327,0.779769231 9.12281731,0.779769231 L-1.29318778e-12,0.779769231 L-1.29318778e-12,25.1235128 L9.85784615,25.1235128 C12.7341154,25.1235128 14.8346538,24.4136923 16.1985673,23.0377692 C17.5632788,21.6228974 18.2256827,19.9274359 18.2256827,17.9124359 C18.2256827,16.6064615 17.8202596,15.3712308 16.9727019,14.204359 L16.9735,14.204359 Z M8.30957692,5.93530769 C9.67428846,5.93530769 10.375,6.67930769 10.375,8.16333333 C10.375,9.3985641 9.52744231,10.1759487 8.23854808,10.1759487 L5.86027885,10.1759487 L5.86027885,5.93530769 L8.310375,5.93530769 L8.30957692,5.93530769 Z M8.86424038,19.9632051 L5.86027885,19.9632051 L5.86027885,15.0175128 L8.82752885,15.0175128 C10.7453077,15.0175128 11.703,16.1835897 11.703,17.4553846 C11.703,18.8321026 10.6710865,19.9632051 8.86583654,19.9632051 L8.86424038,19.9632051 Z M35.0371731,19.5037692 L35.0371731,0.00158974359 L29.1776923,0.00158974359 L29.1776923,25.1227179 L37.3420192,25.1227179 L37.3420192,19.5037692 L35.0371731,19.5037692 Z M72.2993846,8.65774359 L69.0911154,16.6414359 L65.736,8.65694872 L59.3250481,8.65694872 L66.0687981,22.9296667 L62.8238173,30.6971538 L69.0129038,30.6971538 L78.5275769,8.65774359 L72.2993846,8.65774359 Z"
		class="isHovered"></path>
	<path id="mobile-logo"
		d="M24.4142404,19.0514872 C26.3655385,19.0514872 27.9497212,20.4297949 27.9497212,22.2683333 C27.9497212,24.1394615 26.3655385,25.5543333 24.4142404,25.5543333 C22.4964615,25.5543333 20.9481923,24.1394615 20.9481923,22.2675385 C20.9481923,20.429 22.4964615,19.0506923 24.4142404,19.0506923 L24.4142404,19.0514872 Z M17.0916154,14.3180256 C16.2432596,13.1527436 15.0269904,12.4802821 13.4420096,12.2338718 C14.6949904,11.8817436 15.6175673,11.2084872 16.1698365,10.2562308 C16.7229038,9.30238462 17.0173942,8.34853846 17.0173942,7.42966667 C17.0173942,5.487 16.3174808,3.89566667 14.8785481,2.69541026 C13.4803173,1.49515385 11.6000481,0.893435897 9.24093269,0.893435897 L0.118115385,0.893435897 L0.118115385,25.2371795 L9.97596154,25.2371795 C12.8522308,25.2371795 14.9527692,24.527359 16.3166827,23.1514359 C17.6813942,21.7365641 18.3437981,20.0411026 18.3437981,18.0261026 C18.3437981,16.7201282 17.938375,15.4848974 17.0908173,14.3180256 L17.0916154,14.3180256 Z M8.42769231,6.04897436 C9.79240385,6.04897436 10.4931154,6.79297436 10.4931154,8.277 C10.4931154,9.51223077 9.64555769,10.2896154 8.35666346,10.2896154 L5.97839423,10.2896154 L5.97839423,6.04897436 L8.42849038,6.04897436 L8.42769231,6.04897436 Z M8.98235577,20.0768718 L5.97839423,20.0768718 L5.97839423,15.1311795 L8.94564423,15.1311795 C10.8634231,15.1311795 11.8211154,16.2972564 11.8211154,17.5690513 C11.8211154,18.9457692 10.7892019,20.0768718 8.98395192,20.0768718 L8.98235577,20.0768718 Z">
	</path>
</svg>